<?xml version="1.0" encoding="UTF-8" standalone="no"?>
<!DOCTYPE svg PUBLIC "-//W3C//DTD SVG 1.1//EN"
 "http://www.w3.org/Graphics/SVG/1.1/DTD/svg11.dtd">
<!-- Generated by graphviz version 2.26.3 (20100126.1600)
 -->
<!-- Title: G Pages: 1 -->
<svg width="936pt" height="627pt"
 viewBox="0.00 0.00 936.00 627.03" xmlns="http://www.w3.org/2000/svg" xmlns:xlink="http://www.w3.org/1999/xlink">
<g id="graph1" class="graph" transform="scale(1 1) rotate(0) translate(4 623.027)">
<title>G</title>
<polygon fill="white" stroke="white" points="-4,5 -4,-623.027 933,-623.027 933,5 -4,5"/>
<g id="graph2" class="cluster"><title>cluster_Global</title>
<polyline fill="none" stroke="gray" points="266,-83.0268 908,-83.0268 "/>
<path fill="none" stroke="gray" d="M908,-83.0268C914,-83.0268 920,-89.0268 920,-95.0268"/>
<polyline fill="none" stroke="gray" points="920,-95.0268 920,-599.027 "/>
<path fill="none" stroke="gray" d="M920,-599.027C920,-605.027 914,-611.027 908,-611.027"/>
<polyline fill="none" stroke="gray" points="908,-611.027 266,-611.027 "/>
<path fill="none" stroke="gray" d="M266,-611.027C260,-611.027 254,-605.027 254,-599.027"/>
<polyline fill="none" stroke="gray" points="254,-599.027 254,-95.0268 "/>
<path fill="none" stroke="gray" d="M254,-95.0268C254,-89.0268 260,-83.0268 266,-83.0268"/>
<text text-anchor="middle" x="587" y="-597.127" font-family="Times Roman,serif" font-size="11.00" fill="gray">Global</text>
</g>
<g id="graph3" class="cluster"><title>cluster_\chdemko</title>
<polyline fill="none" stroke="gray" points="274,-91.0268 900,-91.0268 "/>
<path fill="none" stroke="gray" d="M900,-91.0268C906,-91.0268 912,-97.0268 912,-103.027"/>
<polyline fill="none" stroke="gray" points="912,-103.027 912,-569.027 "/>
<path fill="none" stroke="gray" d="M912,-569.027C912,-575.027 906,-581.027 900,-581.027"/>
<polyline fill="none" stroke="gray" points="900,-581.027 274,-581.027 "/>
<path fill="none" stroke="gray" d="M274,-581.027C268,-581.027 262,-575.027 262,-569.027"/>
<polyline fill="none" stroke="gray" points="262,-569.027 262,-103.027 "/>
<path fill="none" stroke="gray" d="M262,-103.027C262,-97.0268 268,-91.0268 274,-91.0268"/>
<text text-anchor="middle" x="587" y="-567.127" font-family="Times Roman,serif" font-size="11.00" fill="gray">chdemko</text>
</g>
<g id="graph4" class="cluster"><title>cluster_\chdemko\SortedCollection</title>
<polyline fill="none" stroke="gray" points="282,-99.0268 892,-99.0268 "/>
<path fill="none" stroke="gray" d="M892,-99.0268C898,-99.0268 904,-105.027 904,-111.027"/>
<polyline fill="none" stroke="gray" points="904,-111.027 904,-539.027 "/>
<path fill="none" stroke="gray" d="M904,-539.027C904,-545.027 898,-551.027 892,-551.027"/>
<polyline fill="none" stroke="gray" points="892,-551.027 282,-551.027 "/>
<path fill="none" stroke="gray" d="M282,-551.027C276,-551.027 270,-545.027 270,-539.027"/>
<polyline fill="none" stroke="gray" points="270,-539.027 270,-111.027 "/>
<path fill="none" stroke="gray" d="M270,-111.027C270,-105.027 276,-99.0268 282,-99.0268"/>
<text text-anchor="middle" x="587" y="-537.127" font-family="Times Roman,serif" font-size="11.00" fill="gray">SortedCollection</text>
</g>
<!-- \\chdemko\\SortedCollection\\ReversedSet -->
<g id="node4" class="node"><title>\\chdemko\\SortedCollection\\ReversedSet</title>
<polygon fill="none" stroke="black" points="895,-359.027 805,-359.027 805,-323.027 895,-323.027 895,-359.027"/>
<text text-anchor="middle" x="850" y="-338.127" font-family="Courier,monospace" font-size="11.00">ReversedSet</text>
</g>
<!-- \\chdemko\\SortedCollection\\AbstractSet -->
<g id="node7" class="node"><title>\\chdemko\\SortedCollection\\AbstractSet</title>
<polygon fill="none" stroke="black" points="725,-305.027 633,-305.027 633,-269.027 725,-269.027 725,-305.027"/>
<text text-anchor="start" x="645" y="-292.46" font-family="Courier,monospace" font-size="11.00">«abstract»</text>
<text text-anchor="start" x="641.5" y="-279.26" font-family="Courier,monospace" font-size="11.00">AbstractSet</text>
</g>
<!-- \\chdemko\\SortedCollection\\ReversedSet&#45;&gt;\\chdemko\\SortedCollection\\AbstractSet -->
<g id="edge5" class="edge"><title>\\chdemko\\SortedCollection\\ReversedSet&#45;&gt;\\chdemko\\SortedCollection\\AbstractSet</title>
<path fill="none" stroke="black" d="M804.175,-326.556C782.889,-319.834 757.388,-311.781 734.973,-304.703"/>
<polygon fill="none" stroke="black" points="735.838,-301.305 725.249,-301.632 733.73,-307.981 735.838,-301.305"/>
</g>
<!-- \\chdemko\\SortedCollection\\SubMap -->
<g id="node5" class="node"><title>\\chdemko\\SortedCollection\\SubMap</title>
<polygon fill="none" stroke="black" points="878,-521.027 822,-521.027 822,-485.027 878,-485.027 878,-521.027"/>
<text text-anchor="middle" x="850" y="-500.127" font-family="Courier,monospace" font-size="11.00">SubMap</text>
</g>
<!-- \\chdemko\\SortedCollection\\AbstractMap -->
<g id="node10" class="node"><title>\\chdemko\\SortedCollection\\AbstractMap</title>
<polygon fill="none" stroke="black" points="725,-440.027 633,-440.027 633,-404.027 725,-404.027 725,-440.027"/>
<text text-anchor="start" x="645" y="-427.46" font-family="Courier,monospace" font-size="11.00">«abstract»</text>
<text text-anchor="start" x="641.5" y="-414.26" font-family="Courier,monospace" font-size="11.00">AbstractMap</text>
</g>
<!-- \\chdemko\\SortedCollection\\SubMap&#45;&gt;\\chdemko\\SortedCollection\\AbstractMap -->
<g id="edge7" class="edge"><title>\\chdemko\\SortedCollection\\SubMap&#45;&gt;\\chdemko\\SortedCollection\\AbstractMap</title>
<path fill="none" stroke="black" d="M821.378,-489.469C795.443,-477.184 756.729,-458.846 726.214,-444.392"/>
<polygon fill="none" stroke="black" points="727.567,-441.159 717.031,-440.041 724.57,-447.485 727.567,-441.159"/>
</g>
<!-- \\chdemko\\SortedCollection\\ReversedMap -->
<g id="node6" class="node"><title>\\chdemko\\SortedCollection\\ReversedMap</title>
<polygon fill="none" stroke="black" points="895,-467.027 805,-467.027 805,-431.027 895,-431.027 895,-467.027"/>
<text text-anchor="middle" x="850" y="-446.127" font-family="Courier,monospace" font-size="11.00">ReversedMap</text>
</g>
<!-- \\chdemko\\SortedCollection\\ReversedMap&#45;&gt;\\chdemko\\SortedCollection\\AbstractMap -->
<g id="edge9" class="edge"><title>\\chdemko\\SortedCollection\\ReversedMap&#45;&gt;\\chdemko\\SortedCollection\\AbstractMap</title>
<path fill="none" stroke="black" d="M804.175,-441.791C782.985,-438.445 757.617,-434.44 735.275,-430.912"/>
<polygon fill="none" stroke="black" points="735.672,-427.432 725.249,-429.329 734.58,-434.346 735.672,-427.432"/>
</g>
<!-- \\chdemko\\SortedCollection\\SortedSet -->
<g id="node16" class="node"><title>\\chdemko\\SortedCollection\\SortedSet</title>
<polygon fill="none" stroke="black" points="553,-305.027 477,-305.027 477,-269.027 553,-269.027 553,-305.027"/>
<text text-anchor="middle" x="515" y="-284.127" font-family="Courier,monospace" font-size="11.00">SortedSet</text>
</g>
<!-- \\chdemko\\SortedCollection\\AbstractSet&#45;&gt;\\chdemko\\SortedCollection\\SortedSet -->
<g id="edge11" class="edge"><title>\\chdemko\\SortedCollection\\AbstractSet&#45;&gt;\\chdemko\\SortedCollection\\SortedSet</title>
<path fill="none" stroke="black" stroke-dasharray="1,5" d="M632.88,-287.027C611.288,-287.027 585.562,-287.027 563.66,-287.027"/>
<polygon fill="none" stroke="black" points="563.574,-283.527 553.574,-287.027 563.574,-290.527 563.574,-283.527"/>
</g>
<!-- \\chdemko\\SortedCollection\\Iterator -->
<g id="node8" class="node"><title>\\chdemko\\SortedCollection\\Iterator</title>
<polygon fill="none" stroke="black" points="885,-197.027 815,-197.027 815,-161.027 885,-161.027 885,-197.027"/>
<text text-anchor="middle" x="850" y="-176.127" font-family="Courier,monospace" font-size="11.00">Iterator</text>
</g>
<!-- \\Iterator -->
<g id="node22" class="node"><title>\\Iterator</title>
<ellipse fill="none" stroke="black" cx="679" cy="-57.0268" rx="51.8276" ry="18.3848"/>
<text text-anchor="middle" x="679" y="-53.4268" font-family="Times Roman,serif" font-size="14.00" fill="gray">\Iterator</text>
</g>
<!-- \\chdemko\\SortedCollection\\Iterator&#45;&gt;\\Iterator -->
<g id="edge13" class="edge"><title>\\chdemko\\SortedCollection\\Iterator&#45;&gt;\\Iterator</title>
<path fill="none" stroke="black" stroke-dasharray="1,5" d="M817.968,-161.001C813.217,-158.105 808.432,-155.06 804,-152.027 770.32,-128.975 764.594,-119.591 732,-95.0268 725.046,-89.7861 717.487,-84.2647 710.314,-79.1042"/>
<polygon fill="none" stroke="black" points="712.301,-76.2216 702.131,-73.2505 708.228,-81.9151 712.301,-76.2216"/>
</g>
<!-- \\chdemko\\SortedCollection\\TreeMap -->
<g id="node9" class="node"><title>\\chdemko\\SortedCollection\\TreeMap</title>
<polygon fill="none" stroke="black" points="882,-413.027 818,-413.027 818,-377.027 882,-377.027 882,-413.027"/>
<text text-anchor="middle" x="850" y="-392.127" font-family="Courier,monospace" font-size="11.00">TreeMap</text>
</g>
<!-- \\chdemko\\SortedCollection\\TreeMap&#45;&gt;\\chdemko\\SortedCollection\\AbstractMap -->
<g id="edge15" class="edge"><title>\\chdemko\\SortedCollection\\TreeMap&#45;&gt;\\chdemko\\SortedCollection\\AbstractMap</title>
<path fill="none" stroke="black" d="M817.836,-400.105C794.674,-403.763 762.816,-408.793 735.459,-413.112"/>
<polygon fill="none" stroke="black" points="734.554,-409.712 725.222,-414.729 735.646,-416.626 734.554,-409.712"/>
</g>
<!-- \\chdemko\\SortedCollection\\SortedMap -->
<g id="node14" class="node"><title>\\chdemko\\SortedCollection\\SortedMap</title>
<polygon fill="none" stroke="black" points="553,-386.027 477,-386.027 477,-350.027 553,-350.027 553,-386.027"/>
<text text-anchor="middle" x="515" y="-365.127" font-family="Courier,monospace" font-size="11.00">SortedMap</text>
</g>
<!-- \\chdemko\\SortedCollection\\AbstractMap&#45;&gt;\\chdemko\\SortedCollection\\SortedMap -->
<g id="edge17" class="edge"><title>\\chdemko\\SortedCollection\\AbstractMap&#45;&gt;\\chdemko\\SortedCollection\\SortedMap</title>
<path fill="none" stroke="black" stroke-dasharray="1,5" d="M632.88,-406.841C611.191,-399.699 585.329,-391.184 563.363,-383.951"/>
<polygon fill="none" stroke="black" points="564.167,-380.531 553.574,-380.728 561.977,-387.18 564.167,-380.531"/>
</g>
<!-- \\chdemko\\SortedCollection\\SubSet -->
<g id="node11" class="node"><title>\\chdemko\\SortedCollection\\SubSet</title>
<polygon fill="none" stroke="black" points="878,-305.027 822,-305.027 822,-269.027 878,-269.027 878,-305.027"/>
<text text-anchor="middle" x="850" y="-284.127" font-family="Courier,monospace" font-size="11.00">SubSet</text>
</g>
<!-- \\chdemko\\SortedCollection\\SubSet&#45;&gt;\\chdemko\\SortedCollection\\AbstractSet -->
<g id="edge19" class="edge"><title>\\chdemko\\SortedCollection\\SubSet&#45;&gt;\\chdemko\\SortedCollection\\AbstractSet</title>
<path fill="none" stroke="black" d="M821.378,-287.027C798.007,-287.027 764.259,-287.027 735.485,-287.027"/>
<polygon fill="none" stroke="black" points="735.138,-283.527 725.138,-287.027 735.138,-290.527 735.138,-283.527"/>
</g>
<!-- \\chdemko\\SortedCollection\\TreeNode -->
<g id="node12" class="node"><title>\\chdemko\\SortedCollection\\TreeNode</title>
<polygon fill="none" stroke="black" points="885,-143.027 815,-143.027 815,-107.027 885,-107.027 885,-143.027"/>
<text text-anchor="middle" x="850" y="-122.127" font-family="Courier,monospace" font-size="11.00">TreeNode</text>
</g>
<!-- \\Countable -->
<g id="node27" class="node"><title>\\Countable</title>
<ellipse fill="none" stroke="black" cx="103" cy="-95.0268" rx="65.0538" ry="18.3848"/>
<text text-anchor="middle" x="103" y="-91.4268" font-family="Times Roman,serif" font-size="14.00" fill="gray">\Countable</text>
</g>
<!-- \\chdemko\\SortedCollection\\TreeNode&#45;&gt;\\Countable -->
<g id="edge21" class="edge"><title>\\chdemko\\SortedCollection\\TreeNode&#45;&gt;\\Countable</title>
<path fill="none" stroke="black" stroke-dasharray="1,5" d="M834.72,-106.713C814.162,-83.6611 775.159,-45.2412 732,-30.0268 524.667,43.0621 256.828,-37.9638 150.003,-76.7218"/>
<polygon fill="none" stroke="black" points="148.655,-73.4881 140.475,-80.2221 151.069,-80.0587 148.655,-73.4881"/>
</g>
<!-- \\chdemko\\SortedCollection\\TreeSet -->
<g id="node13" class="node"><title>\\chdemko\\SortedCollection\\TreeSet</title>
<polygon fill="none" stroke="black" points="882,-251.027 818,-251.027 818,-215.027 882,-215.027 882,-251.027"/>
<text text-anchor="middle" x="850" y="-230.127" font-family="Courier,monospace" font-size="11.00">TreeSet</text>
</g>
<!-- \\chdemko\\SortedCollection\\TreeSet&#45;&gt;\\chdemko\\SortedCollection\\AbstractSet -->
<g id="edge23" class="edge"><title>\\chdemko\\SortedCollection\\TreeSet&#45;&gt;\\chdemko\\SortedCollection\\AbstractSet</title>
<path fill="none" stroke="black" d="M817.836,-243.184C794.572,-250.53 762.535,-260.647 735.098,-269.312"/>
<polygon fill="none" stroke="black" points="733.704,-266.081 725.222,-272.43 735.812,-272.756 733.704,-266.081"/>
</g>
<!-- \\chdemko\\SortedCollection\\SortedCollection -->
<g id="node15" class="node"><title>\\chdemko\\SortedCollection\\SortedCollection</title>
<polygon fill="none" stroke="black" points="403,-305.027 279,-305.027 279,-269.027 403,-269.027 403,-305.027"/>
<text text-anchor="middle" x="341" y="-284.127" font-family="Courier,monospace" font-size="11.00">SortedCollection</text>
</g>
<!-- \\chdemko\\SortedCollection\\SortedMap&#45;&gt;\\chdemko\\SortedCollection\\SortedCollection -->
<g id="edge25" class="edge"><title>\\chdemko\\SortedCollection\\SortedMap&#45;&gt;\\chdemko\\SortedCollection\\SortedCollection</title>
<path fill="none" stroke="black" d="M476.384,-350.05C450.68,-338.085 416.714,-322.273 389.234,-309.481"/>
<polygon fill="none" stroke="black" points="390.352,-306.14 379.809,-305.093 387.397,-312.486 390.352,-306.14"/>
</g>
<!-- \\chdemko\\SortedCollection\\SortedCollection&#45;&gt;\\Countable -->
<g id="edge29" class="edge"><title>\\chdemko\\SortedCollection\\SortedCollection&#45;&gt;\\Countable</title>
<path fill="none" stroke="black" d="M318.61,-268.964C275.292,-234.018 180.059,-157.192 131.982,-118.407"/>
<polygon fill="none" stroke="black" points="134.111,-115.628 124.131,-112.073 129.716,-121.076 134.111,-115.628"/>
</g>
<!-- \\ArrayAccess -->
<g id="node31" class="node"><title>\\ArrayAccess</title>
<ellipse fill="none" stroke="black" cx="103" cy="-341.027" rx="73.0388" ry="18.3848"/>
<text text-anchor="middle" x="103" y="-337.427" font-family="Times Roman,serif" font-size="14.00" fill="gray">\ArrayAccess</text>
</g>
<!-- \\chdemko\\SortedCollection\\SortedCollection&#45;&gt;\\ArrayAccess -->
<g id="edge27" class="edge"><title>\\chdemko\\SortedCollection\\SortedCollection&#45;&gt;\\ArrayAccess</title>
<path fill="none" stroke="black" d="M278.468,-301.215C244.122,-309.007 201.606,-318.654 167.026,-326.5"/>
<polygon fill="none" stroke="black" points="166.011,-323.141 157.034,-328.767 167.56,-329.968 166.011,-323.141"/>
</g>
<!-- \\IteratorAggregate -->
<g id="node34" class="node"><title>\\IteratorAggregate</title>
<ellipse fill="none" stroke="black" cx="103" cy="-287.027" rx="103.238" ry="18.3848"/>
<text text-anchor="middle" x="103" y="-283.427" font-family="Times Roman,serif" font-size="14.00" fill="gray">\IteratorAggregate</text>
</g>
<!-- \\chdemko\\SortedCollection\\SortedCollection&#45;&gt;\\IteratorAggregate -->
<g id="edge31" class="edge"><title>\\chdemko\\SortedCollection\\SortedCollection&#45;&gt;\\IteratorAggregate</title>
<path fill="none" stroke="black" d="M278.468,-287.027C259.326,-287.027 237.646,-287.027 216.217,-287.027"/>
<polygon fill="none" stroke="black" points="216.066,-283.527 206.065,-287.027 216.065,-290.527 216.066,-283.527"/>
</g>
<!-- \\JsonSerializable -->
<g id="node36" class="node"><title>\\JsonSerializable</title>
<ellipse fill="none" stroke="black" cx="103" cy="-233.027" rx="91.2168" ry="18.3848"/>
<text text-anchor="middle" x="103" y="-229.427" font-family="Times Roman,serif" font-size="14.00" fill="gray">\JsonSerializable</text>
</g>
<!-- \\chdemko\\SortedCollection\\SortedCollection&#45;&gt;\\JsonSerializable -->
<g id="edge33" class="edge"><title>\\chdemko\\SortedCollection\\SortedCollection&#45;&gt;\\JsonSerializable</title>
<path fill="none" stroke="black" d="M278.468,-272.839C246.142,-265.504 206.577,-256.528 173.205,-248.956"/>
<polygon fill="none" stroke="black" points="173.589,-245.454 163.062,-246.654 172.04,-252.28 173.589,-245.454"/>
</g>
<!-- \\chdemko\\SortedCollection\\SortedSet&#45;&gt;\\chdemko\\SortedCollection\\SortedCollection -->
<g id="edge35" class="edge"><title>\\chdemko\\SortedCollection\\SortedSet&#45;&gt;\\chdemko\\SortedCollection\\SortedCollection</title>
<path fill="none" stroke="black" d="M476.384,-287.027C457.974,-287.027 435.325,-287.027 413.857,-287.027"/>
<polygon fill="none" stroke="black" points="413.768,-283.527 403.768,-287.027 413.768,-290.527 413.768,-283.527"/>
</g>
</g>
</svg>
