<?xml version="1.0" encoding="UTF-8" standalone="no"?>
<!DOCTYPE svg PUBLIC "-//W3C//DTD SVG 1.1//EN"
 "http://www.w3.org/Graphics/SVG/1.1/DTD/svg11.dtd">
<!-- Generated by graphviz version 2.26.3 (20100126.1600)
 -->
<!-- Title: G Pages: 1 -->
<svg width="914pt" height="588pt"
 viewBox="0.00 0.00 914.00 588.00" xmlns="http://www.w3.org/2000/svg" xmlns:xlink="http://www.w3.org/1999/xlink">
<g id="graph1" class="graph" transform="scale(1 1) rotate(0) translate(4 584)">
<title>G</title>
<polygon fill="white" stroke="white" points="-4,5 -4,-584 911,-584 911,5 -4,5"/>
<g id="graph2" class="cluster"><title>cluster_Global</title>
<polyline fill="none" stroke="gray" points="266,-44 886,-44 "/>
<path fill="none" stroke="gray" d="M886,-44C892,-44 898,-50 898,-56"/>
<polyline fill="none" stroke="gray" points="898,-56 898,-560 "/>
<path fill="none" stroke="gray" d="M898,-560C898,-566 892,-572 886,-572"/>
<polyline fill="none" stroke="gray" points="886,-572 266,-572 "/>
<path fill="none" stroke="gray" d="M266,-572C260,-572 254,-566 254,-560"/>
<polyline fill="none" stroke="gray" points="254,-560 254,-56 "/>
<path fill="none" stroke="gray" d="M254,-56C254,-50 260,-44 266,-44"/>
<text text-anchor="middle" x="576" y="-558.1" font-family="Times Roman,serif" font-size="11.00" fill="gray">Global</text>
</g>
<g id="graph3" class="cluster"><title>cluster_\chdemko</title>
<polyline fill="none" stroke="gray" points="274,-52 878,-52 "/>
<path fill="none" stroke="gray" d="M878,-52C884,-52 890,-58 890,-64"/>
<polyline fill="none" stroke="gray" points="890,-64 890,-530 "/>
<path fill="none" stroke="gray" d="M890,-530C890,-536 884,-542 878,-542"/>
<polyline fill="none" stroke="gray" points="878,-542 274,-542 "/>
<path fill="none" stroke="gray" d="M274,-542C268,-542 262,-536 262,-530"/>
<polyline fill="none" stroke="gray" points="262,-530 262,-64 "/>
<path fill="none" stroke="gray" d="M262,-64C262,-58 268,-52 274,-52"/>
<text text-anchor="middle" x="576" y="-528.1" font-family="Times Roman,serif" font-size="11.00" fill="gray">chdemko</text>
</g>
<g id="graph4" class="cluster"><title>cluster_\chdemko\SortedCollection</title>
<polyline fill="none" stroke="gray" points="282,-60 870,-60 "/>
<path fill="none" stroke="gray" d="M870,-60C876,-60 882,-66 882,-72"/>
<polyline fill="none" stroke="gray" points="882,-72 882,-500 "/>
<path fill="none" stroke="gray" d="M882,-500C882,-506 876,-512 870,-512"/>
<polyline fill="none" stroke="gray" points="870,-512 282,-512 "/>
<path fill="none" stroke="gray" d="M282,-512C276,-512 270,-506 270,-500"/>
<polyline fill="none" stroke="gray" points="270,-500 270,-72 "/>
<path fill="none" stroke="gray" d="M270,-72C270,-66 276,-60 282,-60"/>
<text text-anchor="middle" x="576" y="-498.1" font-family="Times Roman,serif" font-size="11.00" fill="gray">SortedCollection</text>
</g>
<!-- \\chdemko\\SortedCollection\\TreeSet -->
<g id="node4" class="node"><title>\\chdemko\\SortedCollection\\TreeSet</title>
<polygon fill="none" stroke="black" points="858,-482 800,-482 800,-446 858,-446 858,-482"/>
<text text-anchor="middle" x="829" y="-461.1" font-family="Times Roman,serif" font-size="11.00">TreeSet</text>
</g>
<!-- \\chdemko\\SortedCollection\\AbstractSet -->
<g id="node12" class="node"><title>\\chdemko\\SortedCollection\\AbstractSet</title>
<polygon fill="none" stroke="black" points="700,-401 618,-401 618,-365 700,-365 700,-401"/>
<text text-anchor="start" x="629" y="-388.433" font-family="Times Roman,serif" font-size="11.00">«abstract»</text>
<text text-anchor="start" x="626" y="-375.233" font-family="Times Roman,serif" font-size="11.00">AbstractSet</text>
</g>
<!-- \\chdemko\\SortedCollection\\TreeSet&#45;&gt;\\chdemko\\SortedCollection\\AbstractSet -->
<g id="edge5" class="edge"><title>\\chdemko\\SortedCollection\\TreeSet&#45;&gt;\\chdemko\\SortedCollection\\AbstractSet</title>
<path fill="none" stroke="black" d="M799.388,-449.891C773.722,-437.662 736.123,-419.747 706.294,-405.534"/>
<polygon fill="none" stroke="black" points="707.44,-402.203 696.907,-401.061 704.429,-408.523 707.44,-402.203"/>
</g>
<!-- \\chdemko\\SortedCollection\\TreeNode -->
<g id="node5" class="node"><title>\\chdemko\\SortedCollection\\TreeNode</title>
<polygon fill="none" stroke="black" points="863,-158 795,-158 795,-122 863,-122 863,-158"/>
<text text-anchor="middle" x="829" y="-137.1" font-family="Times Roman,serif" font-size="11.00">TreeNode</text>
</g>
<!-- \\Countable -->
<g id="node19" class="node"><title>\\Countable</title>
<ellipse fill="none" stroke="black" cx="103" cy="-140" rx="65.0538" ry="18.3848"/>
<text text-anchor="middle" x="103" y="-136.4" font-family="Times Roman,serif" font-size="14.00" fill="gray">\Countable</text>
</g>
<!-- \\chdemko\\SortedCollection\\TreeNode&#45;&gt;\\Countable -->
<g id="edge7" class="edge"><title>\\chdemko\\SortedCollection\\TreeNode&#45;&gt;\\Countable</title>
<path fill="none" stroke="black" stroke-dasharray="1,5" d="M794.957,-140C684.45,-140 333.941,-140 178.492,-140"/>
<polygon fill="none" stroke="black" points="178.091,-136.5 168.091,-140 178.091,-143.5 178.091,-136.5"/>
</g>
<!-- \\chdemko\\SortedCollection\\TreeMap -->
<g id="node6" class="node"><title>\\chdemko\\SortedCollection\\TreeMap</title>
<polygon fill="none" stroke="black" points="860,-320 798,-320 798,-284 860,-284 860,-320"/>
<text text-anchor="middle" x="829" y="-299.1" font-family="Times Roman,serif" font-size="11.00">TreeMap</text>
</g>
<!-- \\chdemko\\SortedCollection\\AbstractMap -->
<g id="node13" class="node"><title>\\chdemko\\SortedCollection\\AbstractMap</title>
<polygon fill="none" stroke="black" points="702,-266 616,-266 616,-230 702,-230 702,-266"/>
<text text-anchor="start" x="629" y="-253.433" font-family="Times Roman,serif" font-size="11.00">«abstract»</text>
<text text-anchor="start" x="624" y="-240.233" font-family="Times Roman,serif" font-size="11.00">AbstractMap</text>
</g>
<!-- \\chdemko\\SortedCollection\\TreeMap&#45;&gt;\\chdemko\\SortedCollection\\AbstractMap -->
<g id="edge9" class="edge"><title>\\chdemko\\SortedCollection\\TreeMap&#45;&gt;\\chdemko\\SortedCollection\\AbstractMap</title>
<path fill="none" stroke="black" d="M797.423,-291.97C773.544,-284.385 740.207,-273.795 712.231,-264.909"/>
<polygon fill="none" stroke="black" points="713.175,-261.536 702.584,-261.844 711.055,-268.208 713.175,-261.536"/>
</g>
<!-- \\chdemko\\SortedCollection\\SubSet -->
<g id="node7" class="node"><title>\\chdemko\\SortedCollection\\SubSet</title>
<polygon fill="none" stroke="black" points="857,-428 801,-428 801,-392 857,-392 857,-428"/>
<text text-anchor="middle" x="829" y="-407.1" font-family="Times Roman,serif" font-size="11.00">SubSet</text>
</g>
<!-- \\chdemko\\SortedCollection\\SubSet&#45;&gt;\\chdemko\\SortedCollection\\AbstractSet -->
<g id="edge11" class="edge"><title>\\chdemko\\SortedCollection\\SubSet&#45;&gt;\\chdemko\\SortedCollection\\AbstractSet</title>
<path fill="none" stroke="black" d="M800.928,-405.541C776.548,-401.669 740.604,-395.961 710.99,-391.257"/>
<polygon fill="none" stroke="black" points="711.233,-387.752 700.808,-389.64 710.135,-394.665 711.233,-387.752"/>
</g>
<!-- \\chdemko\\SortedCollection\\SubMap -->
<g id="node8" class="node"><title>\\chdemko\\SortedCollection\\SubMap</title>
<polygon fill="none" stroke="black" points="859,-266 799,-266 799,-230 859,-230 859,-266"/>
<text text-anchor="middle" x="829" y="-245.1" font-family="Times Roman,serif" font-size="11.00">SubMap</text>
</g>
<!-- \\chdemko\\SortedCollection\\SubMap&#45;&gt;\\chdemko\\SortedCollection\\AbstractMap -->
<g id="edge13" class="edge"><title>\\chdemko\\SortedCollection\\SubMap&#45;&gt;\\chdemko\\SortedCollection\\AbstractMap</title>
<path fill="none" stroke="black" d="M798.214,-248C774.439,-248 740.951,-248 712.778,-248"/>
<polygon fill="none" stroke="black" points="712.666,-244.5 702.666,-248 712.666,-251.5 712.666,-244.5"/>
</g>
<!-- \\chdemko\\SortedCollection\\ReversedSet -->
<g id="node9" class="node"><title>\\chdemko\\SortedCollection\\ReversedSet</title>
<polygon fill="none" stroke="black" points="872,-374 786,-374 786,-338 872,-338 872,-374"/>
<text text-anchor="middle" x="829" y="-353.1" font-family="Times Roman,serif" font-size="11.00">ReversedSet</text>
</g>
<!-- \\chdemko\\SortedCollection\\ReversedSet&#45;&gt;\\chdemko\\SortedCollection\\AbstractSet -->
<g id="edge15" class="edge"><title>\\chdemko\\SortedCollection\\ReversedSet&#45;&gt;\\chdemko\\SortedCollection\\AbstractSet</title>
<path fill="none" stroke="black" d="M785.662,-362.883C762.766,-366.52 734.511,-371.007 710.502,-374.82"/>
<polygon fill="none" stroke="black" points="709.827,-371.383 700.5,-376.409 710.925,-378.297 709.827,-371.383"/>
</g>
<!-- \\chdemko\\SortedCollection\\ReversedMap -->
<g id="node10" class="node"><title>\\chdemko\\SortedCollection\\ReversedMap</title>
<polygon fill="none" stroke="black" points="874,-212 784,-212 784,-176 874,-176 874,-212"/>
<text text-anchor="middle" x="829" y="-191.1" font-family="Times Roman,serif" font-size="11.00">ReversedMap</text>
</g>
<!-- \\chdemko\\SortedCollection\\ReversedMap&#45;&gt;\\chdemko\\SortedCollection\\AbstractMap -->
<g id="edge17" class="edge"><title>\\chdemko\\SortedCollection\\ReversedMap&#45;&gt;\\chdemko\\SortedCollection\\AbstractMap</title>
<path fill="none" stroke="black" d="M783.889,-208.329C761.855,-215.328 735.197,-223.796 712.177,-231.108"/>
<polygon fill="none" stroke="black" points="711.03,-227.801 702.558,-234.164 713.149,-234.472 711.03,-227.801"/>
</g>
<!-- \\chdemko\\SortedCollection\\Iterator -->
<g id="node11" class="node"><title>\\chdemko\\SortedCollection\\Iterator</title>
<polygon fill="none" stroke="black" points="857,-104 801,-104 801,-68 857,-68 857,-104"/>
<text text-anchor="middle" x="829" y="-83.1" font-family="Times Roman,serif" font-size="11.00">Iterator</text>
</g>
<!-- \\Iterator -->
<g id="node26" class="node"><title>\\Iterator</title>
<ellipse fill="none" stroke="black" cx="659" cy="-18" rx="51.8276" ry="18.3848"/>
<text text-anchor="middle" x="659" y="-14.4" font-family="Times Roman,serif" font-size="14.00" fill="gray">\Iterator</text>
</g>
<!-- \\chdemko\\SortedCollection\\Iterator&#45;&gt;\\Iterator -->
<g id="edge19" class="edge"><title>\\chdemko\\SortedCollection\\Iterator&#45;&gt;\\Iterator</title>
<path fill="none" stroke="black" stroke-dasharray="1,5" d="M800.162,-74.4647C773.492,-63.7969 733.472,-47.7886 702.846,-35.5383"/>
<polygon fill="none" stroke="black" points="703.846,-32.1689 693.261,-31.7046 701.246,-38.6682 703.846,-32.1689"/>
</g>
<!-- \\chdemko\\SortedCollection\\SortedSet -->
<g id="node14" class="node"><title>\\chdemko\\SortedCollection\\SortedSet</title>
<polygon fill="none" stroke="black" points="531,-347 459,-347 459,-311 531,-311 531,-347"/>
<text text-anchor="middle" x="495" y="-326.1" font-family="Times Roman,serif" font-size="11.00">SortedSet</text>
</g>
<!-- \\chdemko\\SortedCollection\\AbstractSet&#45;&gt;\\chdemko\\SortedCollection\\SortedSet -->
<g id="edge21" class="edge"><title>\\chdemko\\SortedCollection\\AbstractSet&#45;&gt;\\chdemko\\SortedCollection\\SortedSet</title>
<path fill="none" stroke="black" stroke-dasharray="1,5" d="M617.192,-369.234C593.837,-361.544 564.704,-351.951 540.743,-344.062"/>
<polygon fill="none" stroke="black" points="541.755,-340.71 531.162,-340.907 539.565,-347.359 541.755,-340.71"/>
</g>
<!-- \\chdemko\\SortedCollection\\SortedMap -->
<g id="node15" class="node"><title>\\chdemko\\SortedCollection\\SortedMap</title>
<polygon fill="none" stroke="black" points="533,-266 457,-266 457,-230 533,-230 533,-266"/>
<text text-anchor="middle" x="495" y="-245.1" font-family="Times Roman,serif" font-size="11.00">SortedMap</text>
</g>
<!-- \\chdemko\\SortedCollection\\AbstractMap&#45;&gt;\\chdemko\\SortedCollection\\SortedMap -->
<g id="edge23" class="edge"><title>\\chdemko\\SortedCollection\\AbstractMap&#45;&gt;\\chdemko\\SortedCollection\\SortedMap</title>
<path fill="none" stroke="black" stroke-dasharray="1,5" d="M615.482,-248C593.428,-248 566.571,-248 543.815,-248"/>
<polygon fill="none" stroke="black" points="543.681,-244.5 533.681,-248 543.681,-251.5 543.681,-244.5"/>
</g>
<!-- \\chdemko\\SortedCollection\\SortedCollection -->
<g id="node16" class="node"><title>\\chdemko\\SortedCollection\\SortedCollection</title>
<polygon fill="none" stroke="black" points="383,-266 279,-266 279,-230 383,-230 383,-266"/>
<text text-anchor="middle" x="331" y="-245.1" font-family="Times Roman,serif" font-size="11.00">SortedCollection</text>
</g>
<!-- \\chdemko\\SortedCollection\\SortedSet&#45;&gt;\\chdemko\\SortedCollection\\SortedCollection -->
<g id="edge25" class="edge"><title>\\chdemko\\SortedCollection\\SortedSet&#45;&gt;\\chdemko\\SortedCollection\\SortedCollection</title>
<path fill="none" stroke="black" d="M458.603,-311.023C434.482,-299.11 402.642,-283.384 376.802,-270.622"/>
<polygon fill="none" stroke="black" points="378.094,-267.356 367.578,-266.066 374.994,-273.633 378.094,-267.356"/>
</g>
<!-- \\chdemko\\SortedCollection\\SortedMap&#45;&gt;\\chdemko\\SortedCollection\\SortedCollection -->
<g id="edge27" class="edge"><title>\\chdemko\\SortedCollection\\SortedMap&#45;&gt;\\chdemko\\SortedCollection\\SortedCollection</title>
<path fill="none" stroke="black" d="M456.134,-248C437.494,-248 414.695,-248 393.69,-248"/>
<polygon fill="none" stroke="black" points="393.548,-244.5 383.548,-248 393.548,-251.5 393.548,-244.5"/>
</g>
<!-- \\chdemko\\SortedCollection\\SortedCollection&#45;&gt;\\Countable -->
<g id="edge31" class="edge"><title>\\chdemko\\SortedCollection\\SortedCollection&#45;&gt;\\Countable</title>
<path fill="none" stroke="black" d="M278.162,-237.564C269.688,-234.604 261.312,-230.823 254,-226 225.781,-207.388 234.421,-185.302 206,-167 195.33,-160.129 182.976,-155.002 170.609,-151.177"/>
<polygon fill="none" stroke="black" points="171.294,-147.734 160.719,-148.38 169.389,-154.47 171.294,-147.734"/>
</g>
<!-- \\ArrayAccess -->
<g id="node32" class="node"><title>\\ArrayAccess</title>
<ellipse fill="none" stroke="black" cx="103" cy="-302" rx="73.0388" ry="18.3848"/>
<text text-anchor="middle" x="103" y="-298.4" font-family="Times Roman,serif" font-size="14.00" fill="gray">\ArrayAccess</text>
</g>
<!-- \\chdemko\\SortedCollection\\SortedCollection&#45;&gt;\\ArrayAccess -->
<g id="edge29" class="edge"><title>\\chdemko\\SortedCollection\\SortedCollection&#45;&gt;\\ArrayAccess</title>
<path fill="none" stroke="black" d="M278.406,-260.456C244.867,-268.4 201.222,-278.737 165.859,-287.112"/>
<polygon fill="none" stroke="black" points="165.043,-283.709 156.119,-289.419 166.657,-290.52 165.043,-283.709"/>
</g>
<!-- \\IteratorAggregate -->
<g id="node35" class="node"><title>\\IteratorAggregate</title>
<ellipse fill="none" stroke="black" cx="103" cy="-248" rx="103.238" ry="18.3848"/>
<text text-anchor="middle" x="103" y="-244.4" font-family="Times Roman,serif" font-size="14.00" fill="gray">\IteratorAggregate</text>
</g>
<!-- \\chdemko\\SortedCollection\\SortedCollection&#45;&gt;\\IteratorAggregate -->
<g id="edge33" class="edge"><title>\\chdemko\\SortedCollection\\SortedCollection&#45;&gt;\\IteratorAggregate</title>
<path fill="none" stroke="black" d="M278.406,-248C259.703,-248 237.856,-248 216.055,-248"/>
<polygon fill="none" stroke="black" points="216.054,-244.5 206.054,-248 216.054,-251.5 216.054,-244.5"/>
</g>
<!-- \\JsonSerializable -->
<g id="node37" class="node"><title>\\JsonSerializable</title>
<ellipse fill="none" stroke="black" cx="103" cy="-194" rx="91.2168" ry="18.3848"/>
<text text-anchor="middle" x="103" y="-190.4" font-family="Times Roman,serif" font-size="14.00" fill="gray">\JsonSerializable</text>
</g>
<!-- \\chdemko\\SortedCollection\\SortedCollection&#45;&gt;\\JsonSerializable -->
<g id="edge35" class="edge"><title>\\chdemko\\SortedCollection\\SortedCollection&#45;&gt;\\JsonSerializable</title>
<path fill="none" stroke="black" d="M278.406,-235.544C246.567,-228.003 205.619,-218.304 171.296,-210.175"/>
<polygon fill="none" stroke="black" points="171.877,-206.716 161.34,-207.817 170.264,-213.528 171.877,-206.716"/>
</g>
</g>
</svg>
