<?xml version="1.0" encoding="UTF-8" standalone="no"?>
<!DOCTYPE svg PUBLIC "-//W3C//DTD SVG 1.1//EN"
 "http://www.w3.org/Graphics/SVG/1.1/DTD/svg11.dtd">
<!-- Generated by graphviz version 2.26.3 (20100126.1600)
 -->
<!-- Title: G Pages: 1 -->
<svg width="936pt" height="588pt"
 viewBox="0.00 0.00 936.00 588.00" xmlns="http://www.w3.org/2000/svg" xmlns:xlink="http://www.w3.org/1999/xlink">
<g id="graph1" class="graph" transform="scale(1 1) rotate(0) translate(4 584)">
<title>G</title>
<polygon fill="white" stroke="white" points="-4,5 -4,-584 933,-584 933,5 -4,5"/>
<g id="graph2" class="cluster"><title>cluster_Global</title>
<polyline fill="none" stroke="gray" points="266,-44 908,-44 "/>
<path fill="none" stroke="gray" d="M908,-44C914,-44 920,-50 920,-56"/>
<polyline fill="none" stroke="gray" points="920,-56 920,-560 "/>
<path fill="none" stroke="gray" d="M920,-560C920,-566 914,-572 908,-572"/>
<polyline fill="none" stroke="gray" points="908,-572 266,-572 "/>
<path fill="none" stroke="gray" d="M266,-572C260,-572 254,-566 254,-560"/>
<polyline fill="none" stroke="gray" points="254,-560 254,-56 "/>
<path fill="none" stroke="gray" d="M254,-56C254,-50 260,-44 266,-44"/>
<text text-anchor="middle" x="587" y="-558.1" font-family="Times Roman,serif" font-size="11.00" fill="gray">Global</text>
</g>
<g id="graph3" class="cluster"><title>cluster_\chdemko</title>
<polyline fill="none" stroke="gray" points="274,-52 900,-52 "/>
<path fill="none" stroke="gray" d="M900,-52C906,-52 912,-58 912,-64"/>
<polyline fill="none" stroke="gray" points="912,-64 912,-530 "/>
<path fill="none" stroke="gray" d="M912,-530C912,-536 906,-542 900,-542"/>
<polyline fill="none" stroke="gray" points="900,-542 274,-542 "/>
<path fill="none" stroke="gray" d="M274,-542C268,-542 262,-536 262,-530"/>
<polyline fill="none" stroke="gray" points="262,-530 262,-64 "/>
<path fill="none" stroke="gray" d="M262,-64C262,-58 268,-52 274,-52"/>
<text text-anchor="middle" x="587" y="-528.1" font-family="Times Roman,serif" font-size="11.00" fill="gray">chdemko</text>
</g>
<g id="graph4" class="cluster"><title>cluster_\chdemko\SortedCollection</title>
<polyline fill="none" stroke="gray" points="282,-60 892,-60 "/>
<path fill="none" stroke="gray" d="M892,-60C898,-60 904,-66 904,-72"/>
<polyline fill="none" stroke="gray" points="904,-72 904,-500 "/>
<path fill="none" stroke="gray" d="M904,-500C904,-506 898,-512 892,-512"/>
<polyline fill="none" stroke="gray" points="892,-512 282,-512 "/>
<path fill="none" stroke="gray" d="M282,-512C276,-512 270,-506 270,-500"/>
<polyline fill="none" stroke="gray" points="270,-500 270,-72 "/>
<path fill="none" stroke="gray" d="M270,-72C270,-66 276,-60 282,-60"/>
<text text-anchor="middle" x="587" y="-498.1" font-family="Times Roman,serif" font-size="11.00" fill="gray">SortedCollection</text>
</g>
<!-- \\chdemko\\SortedCollection\\ReversedSet -->
<g id="node4" class="node"><title>\\chdemko\\SortedCollection\\ReversedSet</title>
<polygon fill="none" stroke="black" points="895,-320 805,-320 805,-284 895,-284 895,-320"/>
<text text-anchor="middle" x="850" y="-299.1" font-family="Courier,monospace" font-size="11.00">ReversedSet</text>
</g>
<!-- \\chdemko\\SortedCollection\\AbstractSet -->
<g id="node7" class="node"><title>\\chdemko\\SortedCollection\\AbstractSet</title>
<polygon fill="none" stroke="black" points="725,-266 633,-266 633,-230 725,-230 725,-266"/>
<text text-anchor="start" x="645" y="-253.433" font-family="Courier,monospace" font-size="11.00">«abstract»</text>
<text text-anchor="start" x="641.5" y="-240.233" font-family="Courier,monospace" font-size="11.00">AbstractSet</text>
</g>
<!-- \\chdemko\\SortedCollection\\ReversedSet&#45;&gt;\\chdemko\\SortedCollection\\AbstractSet -->
<g id="edge5" class="edge"><title>\\chdemko\\SortedCollection\\ReversedSet&#45;&gt;\\chdemko\\SortedCollection\\AbstractSet</title>
<path fill="none" stroke="black" d="M804.175,-287.529C782.889,-280.807 757.388,-272.754 734.973,-265.676"/>
<polygon fill="none" stroke="black" points="735.838,-262.279 725.249,-262.605 733.73,-268.954 735.838,-262.279"/>
</g>
<!-- \\chdemko\\SortedCollection\\TreeMap -->
<g id="node5" class="node"><title>\\chdemko\\SortedCollection\\TreeMap</title>
<polygon fill="none" stroke="black" points="882,-482 818,-482 818,-446 882,-446 882,-482"/>
<text text-anchor="middle" x="850" y="-461.1" font-family="Courier,monospace" font-size="11.00">TreeMap</text>
</g>
<!-- \\chdemko\\SortedCollection\\AbstractMap -->
<g id="node6" class="node"><title>\\chdemko\\SortedCollection\\AbstractMap</title>
<polygon fill="none" stroke="black" points="725,-401 633,-401 633,-365 725,-365 725,-401"/>
<text text-anchor="start" x="645" y="-388.433" font-family="Courier,monospace" font-size="11.00">«abstract»</text>
<text text-anchor="start" x="641.5" y="-375.233" font-family="Courier,monospace" font-size="11.00">AbstractMap</text>
</g>
<!-- \\chdemko\\SortedCollection\\TreeMap&#45;&gt;\\chdemko\\SortedCollection\\AbstractMap -->
<g id="edge7" class="edge"><title>\\chdemko\\SortedCollection\\TreeMap&#45;&gt;\\chdemko\\SortedCollection\\AbstractMap</title>
<path fill="none" stroke="black" d="M817.836,-448.765C792.083,-436.566 755.581,-419.275 726.467,-405.485"/>
<polygon fill="none" stroke="black" points="727.833,-402.259 717.298,-401.141 724.837,-408.585 727.833,-402.259"/>
</g>
<!-- \\chdemko\\SortedCollection\\SortedMap -->
<g id="node15" class="node"><title>\\chdemko\\SortedCollection\\SortedMap</title>
<polygon fill="none" stroke="black" points="553,-347 477,-347 477,-311 553,-311 553,-347"/>
<text text-anchor="middle" x="515" y="-326.1" font-family="Courier,monospace" font-size="11.00">SortedMap</text>
</g>
<!-- \\chdemko\\SortedCollection\\AbstractMap&#45;&gt;\\chdemko\\SortedCollection\\SortedMap -->
<g id="edge9" class="edge"><title>\\chdemko\\SortedCollection\\AbstractMap&#45;&gt;\\chdemko\\SortedCollection\\SortedMap</title>
<path fill="none" stroke="black" stroke-dasharray="1,5" d="M632.88,-367.814C611.191,-360.673 585.329,-352.157 563.363,-344.924"/>
<polygon fill="none" stroke="black" points="564.167,-341.504 553.574,-341.701 561.977,-348.153 564.167,-341.504"/>
</g>
<!-- \\chdemko\\SortedCollection\\SortedSet -->
<g id="node16" class="node"><title>\\chdemko\\SortedCollection\\SortedSet</title>
<polygon fill="none" stroke="black" points="553,-266 477,-266 477,-230 553,-230 553,-266"/>
<text text-anchor="middle" x="515" y="-245.1" font-family="Courier,monospace" font-size="11.00">SortedSet</text>
</g>
<!-- \\chdemko\\SortedCollection\\AbstractSet&#45;&gt;\\chdemko\\SortedCollection\\SortedSet -->
<g id="edge11" class="edge"><title>\\chdemko\\SortedCollection\\AbstractSet&#45;&gt;\\chdemko\\SortedCollection\\SortedSet</title>
<path fill="none" stroke="black" stroke-dasharray="1,5" d="M632.88,-248C611.288,-248 585.562,-248 563.66,-248"/>
<polygon fill="none" stroke="black" points="563.574,-244.5 553.574,-248 563.574,-251.5 563.574,-244.5"/>
</g>
<!-- \\chdemko\\SortedCollection\\ReversedMap -->
<g id="node8" class="node"><title>\\chdemko\\SortedCollection\\ReversedMap</title>
<polygon fill="none" stroke="black" points="895,-428 805,-428 805,-392 895,-392 895,-428"/>
<text text-anchor="middle" x="850" y="-407.1" font-family="Courier,monospace" font-size="11.00">ReversedMap</text>
</g>
<!-- \\chdemko\\SortedCollection\\ReversedMap&#45;&gt;\\chdemko\\SortedCollection\\AbstractMap -->
<g id="edge13" class="edge"><title>\\chdemko\\SortedCollection\\ReversedMap&#45;&gt;\\chdemko\\SortedCollection\\AbstractMap</title>
<path fill="none" stroke="black" d="M804.175,-402.764C782.985,-399.419 757.617,-395.413 735.275,-391.886"/>
<polygon fill="none" stroke="black" points="735.672,-388.405 725.249,-390.302 734.58,-395.319 735.672,-388.405"/>
</g>
<!-- \\chdemko\\SortedCollection\\TreeSet -->
<g id="node9" class="node"><title>\\chdemko\\SortedCollection\\TreeSet</title>
<polygon fill="none" stroke="black" points="882,-266 818,-266 818,-230 882,-230 882,-266"/>
<text text-anchor="middle" x="850" y="-245.1" font-family="Courier,monospace" font-size="11.00">TreeSet</text>
</g>
<!-- \\chdemko\\SortedCollection\\TreeSet&#45;&gt;\\chdemko\\SortedCollection\\AbstractSet -->
<g id="edge15" class="edge"><title>\\chdemko\\SortedCollection\\TreeSet&#45;&gt;\\chdemko\\SortedCollection\\AbstractSet</title>
<path fill="none" stroke="black" d="M817.836,-248C794.674,-248 762.816,-248 735.459,-248"/>
<polygon fill="none" stroke="black" points="735.222,-244.5 725.222,-248 735.222,-251.5 735.222,-244.5"/>
</g>
<!-- \\chdemko\\SortedCollection\\TreeNode -->
<g id="node10" class="node"><title>\\chdemko\\SortedCollection\\TreeNode</title>
<polygon fill="none" stroke="black" points="885,-158 815,-158 815,-122 885,-122 885,-158"/>
<text text-anchor="middle" x="850" y="-137.1" font-family="Courier,monospace" font-size="11.00">TreeNode</text>
</g>
<!-- \\Countable -->
<g id="node24" class="node"><title>\\Countable</title>
<ellipse fill="none" stroke="black" cx="103" cy="-140" rx="65.0538" ry="18.3848"/>
<text text-anchor="middle" x="103" y="-136.4" font-family="Times Roman,serif" font-size="14.00" fill="gray">\Countable</text>
</g>
<!-- \\chdemko\\SortedCollection\\TreeNode&#45;&gt;\\Countable -->
<g id="edge17" class="edge"><title>\\chdemko\\SortedCollection\\TreeNode&#45;&gt;\\Countable</title>
<path fill="none" stroke="black" stroke-dasharray="1,5" d="M814.473,-140C699.639,-140 336.739,-140 178.266,-140"/>
<polygon fill="none" stroke="black" points="178.129,-136.5 168.129,-140 178.129,-143.5 178.129,-136.5"/>
</g>
<!-- \\chdemko\\SortedCollection\\SubSet -->
<g id="node11" class="node"><title>\\chdemko\\SortedCollection\\SubSet</title>
<polygon fill="none" stroke="black" points="878,-212 822,-212 822,-176 878,-176 878,-212"/>
<text text-anchor="middle" x="850" y="-191.1" font-family="Courier,monospace" font-size="11.00">SubSet</text>
</g>
<!-- \\chdemko\\SortedCollection\\SubSet&#45;&gt;\\chdemko\\SortedCollection\\AbstractSet -->
<g id="edge19" class="edge"><title>\\chdemko\\SortedCollection\\SubSet&#45;&gt;\\chdemko\\SortedCollection\\AbstractSet</title>
<path fill="none" stroke="black" d="M821.378,-203.038C797.802,-210.483 763.666,-221.263 734.729,-230.401"/>
<polygon fill="none" stroke="black" points="733.62,-227.081 725.138,-233.43 735.728,-233.756 733.62,-227.081"/>
</g>
<!-- \\chdemko\\SortedCollection\\SubMap -->
<g id="node12" class="node"><title>\\chdemko\\SortedCollection\\SubMap</title>
<polygon fill="none" stroke="black" points="878,-374 822,-374 822,-338 878,-338 878,-374"/>
<text text-anchor="middle" x="850" y="-353.1" font-family="Courier,monospace" font-size="11.00">SubMap</text>
</g>
<!-- \\chdemko\\SortedCollection\\SubMap&#45;&gt;\\chdemko\\SortedCollection\\AbstractMap -->
<g id="edge21" class="edge"><title>\\chdemko\\SortedCollection\\SubMap&#45;&gt;\\chdemko\\SortedCollection\\AbstractMap</title>
<path fill="none" stroke="black" d="M821.378,-360.519C797.905,-364.226 763.963,-369.585 735.107,-374.141"/>
<polygon fill="none" stroke="black" points="734.469,-370.698 725.138,-375.715 735.561,-377.613 734.469,-370.698"/>
</g>
<!-- \\chdemko\\SortedCollection\\Iterator -->
<g id="node13" class="node"><title>\\chdemko\\SortedCollection\\Iterator</title>
<polygon fill="none" stroke="black" points="885,-104 815,-104 815,-68 885,-68 885,-104"/>
<text text-anchor="middle" x="850" y="-83.1" font-family="Courier,monospace" font-size="11.00">Iterator</text>
</g>
<!-- \\Iterator -->
<g id="node28" class="node"><title>\\Iterator</title>
<ellipse fill="none" stroke="black" cx="679" cy="-18" rx="51.8276" ry="18.3848"/>
<text text-anchor="middle" x="679" y="-14.4" font-family="Times Roman,serif" font-size="14.00" fill="gray">\Iterator</text>
</g>
<!-- \\chdemko\\SortedCollection\\Iterator&#45;&gt;\\Iterator -->
<g id="edge23" class="edge"><title>\\chdemko\\SortedCollection\\Iterator&#45;&gt;\\Iterator</title>
<path fill="none" stroke="black" stroke-dasharray="1,5" d="M814.153,-71.745C787.608,-61.1892 751.292,-46.7478 722.989,-35.4929"/>
<polygon fill="none" stroke="black" points="723.927,-32.0993 713.342,-31.6564 721.341,-38.6039 723.927,-32.0993"/>
</g>
<!-- \\chdemko\\SortedCollection\\SortedCollection -->
<g id="node14" class="node"><title>\\chdemko\\SortedCollection\\SortedCollection</title>
<polygon fill="none" stroke="black" points="403,-266 279,-266 279,-230 403,-230 403,-266"/>
<text text-anchor="middle" x="341" y="-245.1" font-family="Courier,monospace" font-size="11.00">SortedCollection</text>
</g>
<!-- \\chdemko\\SortedCollection\\SortedCollection&#45;&gt;\\Countable -->
<g id="edge27" class="edge"><title>\\chdemko\\SortedCollection\\SortedCollection&#45;&gt;\\Countable</title>
<path fill="none" stroke="black" d="M278.137,-237.288C269.656,-234.383 261.356,-230.692 254,-226 225.5,-207.822 234.421,-185.302 206,-167 195.33,-160.129 182.976,-155.002 170.609,-151.177"/>
<polygon fill="none" stroke="black" points="171.294,-147.734 160.719,-148.38 169.389,-154.47 171.294,-147.734"/>
</g>
<!-- \\ArrayAccess -->
<g id="node30" class="node"><title>\\ArrayAccess</title>
<ellipse fill="none" stroke="black" cx="103" cy="-302" rx="73.0388" ry="18.3848"/>
<text text-anchor="middle" x="103" y="-298.4" font-family="Times Roman,serif" font-size="14.00" fill="gray">\ArrayAccess</text>
</g>
<!-- \\chdemko\\SortedCollection\\SortedCollection&#45;&gt;\\ArrayAccess -->
<g id="edge25" class="edge"><title>\\chdemko\\SortedCollection\\SortedCollection&#45;&gt;\\ArrayAccess</title>
<path fill="none" stroke="black" d="M278.468,-262.188C244.122,-269.981 201.606,-279.627 167.026,-287.473"/>
<polygon fill="none" stroke="black" points="166.011,-284.114 157.034,-289.74 167.56,-290.941 166.011,-284.114"/>
</g>
<!-- \\IteratorAggregate -->
<g id="node33" class="node"><title>\\IteratorAggregate</title>
<ellipse fill="none" stroke="black" cx="103" cy="-248" rx="103.238" ry="18.3848"/>
<text text-anchor="middle" x="103" y="-244.4" font-family="Times Roman,serif" font-size="14.00" fill="gray">\IteratorAggregate</text>
</g>
<!-- \\chdemko\\SortedCollection\\SortedCollection&#45;&gt;\\IteratorAggregate -->
<g id="edge29" class="edge"><title>\\chdemko\\SortedCollection\\SortedCollection&#45;&gt;\\IteratorAggregate</title>
<path fill="none" stroke="black" d="M278.468,-248C259.326,-248 237.646,-248 216.217,-248"/>
<polygon fill="none" stroke="black" points="216.066,-244.5 206.065,-248 216.065,-251.5 216.066,-244.5"/>
</g>
<!-- \\JsonSerializable -->
<g id="node35" class="node"><title>\\JsonSerializable</title>
<ellipse fill="none" stroke="black" cx="103" cy="-194" rx="91.2168" ry="18.3848"/>
<text text-anchor="middle" x="103" y="-190.4" font-family="Times Roman,serif" font-size="14.00" fill="gray">\JsonSerializable</text>
</g>
<!-- \\chdemko\\SortedCollection\\SortedCollection&#45;&gt;\\JsonSerializable -->
<g id="edge31" class="edge"><title>\\chdemko\\SortedCollection\\SortedCollection&#45;&gt;\\JsonSerializable</title>
<path fill="none" stroke="black" d="M278.468,-233.812C246.142,-226.478 206.577,-217.501 173.205,-209.929"/>
<polygon fill="none" stroke="black" points="173.589,-206.427 163.062,-207.628 172.04,-213.254 173.589,-206.427"/>
</g>
<!-- \\chdemko\\SortedCollection\\SortedMap&#45;&gt;\\chdemko\\SortedCollection\\SortedCollection -->
<g id="edge33" class="edge"><title>\\chdemko\\SortedCollection\\SortedMap&#45;&gt;\\chdemko\\SortedCollection\\SortedCollection</title>
<path fill="none" stroke="black" d="M476.384,-311.023C450.68,-299.058 416.714,-283.246 389.234,-270.454"/>
<polygon fill="none" stroke="black" points="390.352,-267.113 379.809,-266.066 387.397,-273.46 390.352,-267.113"/>
</g>
<!-- \\chdemko\\SortedCollection\\SortedSet&#45;&gt;\\chdemko\\SortedCollection\\SortedCollection -->
<g id="edge35" class="edge"><title>\\chdemko\\SortedCollection\\SortedSet&#45;&gt;\\chdemko\\SortedCollection\\SortedCollection</title>
<path fill="none" stroke="black" d="M476.384,-248C457.974,-248 435.325,-248 413.857,-248"/>
<polygon fill="none" stroke="black" points="413.768,-244.5 403.768,-248 413.768,-251.5 413.768,-244.5"/>
</g>
</g>
</svg>
